HIERARCHY
ROOT joint_Root
{
  OFFSET 0 0 0
  CHANNELS 6 Xposition Yposition Zposition Zrotation Xrotation Yrotation
  JOINT Hips
  {
    OFFSET 0.847027 93.984 -452.225
    CHANNELS 6 Xposition Yposition Zposition Zrotation Xrotation Yrotation
    JOINT Spine
    {
      OFFSET 15.7357 0 0
      CHANNELS 6 Xposition Yposition Zposition Zrotation Xrotation Yrotation
      JOINT Chest
      {
        OFFSET 8.98455 -0.406207 0
        CHANNELS 6 Xposition Yposition Zposition Zrotation Xrotation Yrotation
        JOINT Neck
        {
          OFFSET 16.3773 0 0
          CHANNELS 6 Xposition Yposition Zposition Zrotation Xrotation Yrotation
          JOINT Head
          {
            OFFSET 6.45672 0 0
            CHANNELS 6 Xposition Yposition Zposition Zrotation Xrotation Yrotation
            End Site
            {
              OFFSET 0 0 0
            }
          }
        }
        JOINT Shoulder_L
        {
          OFFSET 12.9942 -0.242716 4.98039
          CHANNELS 6 Xposition Yposition Zposition Zrotation Xrotation Yrotation
          JOINT UpperArm_L
          {
            OFFSET 5.34809 0 0
            CHANNELS 6 Xposition Yposition Zposition Zrotation Xrotation Yrotation
            JOINT LowerArm_L
            {
              OFFSET 24.3286 1.87007e-05 0
              CHANNELS 6 Xposition Yposition Zposition Zrotation Xrotation Yrotation
              JOINT Hand_L
              {
                OFFSET 22.2916 0 0
                CHANNELS 6 Xposition Yposition Zposition Zrotation Xrotation Yrotation
                End Site
                {
                  OFFSET 0 0 0
                }
              }
            }
          }
        }
        JOINT Shoulder_R
        {
          OFFSET 12.9945 -0.242716 -4.98039
          CHANNELS 6 Xposition Yposition Zposition Zrotation Xrotation Yrotation
          JOINT UpperArm_R
          {
            OFFSET -5.34813 0 0
            CHANNELS 6 Xposition Yposition Zposition Zrotation Xrotation Yrotation
            JOINT LowerArm_R
            {
              OFFSET -24.3289 0.000322201 0
              CHANNELS 6 Xposition Yposition Zposition Zrotation Xrotation Yrotation
              JOINT Hand_R
              {
                OFFSET -22.2915 -0.000108084 0
                CHANNELS 6 Xposition Yposition Zposition Zrotation Xrotation Yrotation
                End Site
                {
                  OFFSET 0 0 0
                }
              }
            }
          }
        }
      }
    }
    JOINT UpperLeg_L
    {
      OFFSET -2.19248 -6.46944 0
      CHANNELS 6 Xposition Yposition Zposition Zrotation Xrotation Yrotation
      JOINT LowerLeg_L
      {
        OFFSET 39.0811 0 -1.23785e-05
        CHANNELS 6 Xposition Yposition Zposition Zrotation Xrotation Yrotation
        JOINT Foot_L
        {
          OFFSET 40.9854 0 -1.26872e-05
          CHANNELS 6 Xposition Yposition Zposition Zrotation Xrotation Yrotation
          JOINT Toes_L
          {
            OFFSET 11.7543 0 0
            CHANNELS 6 Xposition Yposition Zposition Zrotation Xrotation Yrotation
            End Site
            {
              OFFSET 0 0 0
            }
          }
        }
      }
    }
    JOINT UpperLeg_R
    {
      OFFSET -2.19251 6.46944 0
      CHANNELS 6 Xposition Yposition Zposition Zrotation Xrotation Yrotation
      JOINT LowerLeg_R
      {
        OFFSET -39.0811 -0.00228153 -0.0401928
        CHANNELS 6 Xposition Yposition Zposition Zrotation Xrotation Yrotation
        JOINT Foot_R
        {
          OFFSET -40.9854 0 0
          CHANNELS 6 Xposition Yposition Zposition Zrotation Xrotation Yrotation
          JOINT Toes_R
          {
            OFFSET -11.7543 0 0
            CHANNELS 6 Xposition Yposition Zposition Zrotation Xrotation Yrotation
            End Site
            {
              OFFSET 0 0 0
            }
          }
        }
      }
    }
  }
}
MOTION
Frames:	4
Frame Time:	0.0333333
0 0 0 0 0 -0 -255.791 88.17 -56.3717 80.1973 57.1732 10.5835 15.7357 5.1072e-06 -5.51765e-07 93.6411 77.5257 -91.2318 8.98455 -0.406207 -4.3199e-07 17.1049 1.75362 4.56271 16.3773 -1.3905e-06 -6.99897e-07 0.275574 -17.3501 -0.723641 6.45672 -1.25837e-06 -1.02172e-07 4.954 -24.957 12.2069 12.9942 -0.242716 4.98039 -90.5951 5.2842 -98.5659 5.34809 -7.22636e-06 -6.2814e-07 -56.1166 23.2428 -27.2203 24.3286 1.87007e-05 4.90208e-06 -2.12569 -3.41501 -31.9293 22.2916 -9.88446e-07 4.63217e-06 19.113 5.58404 -10.4298 12.9945 -0.242716 -4.98039 89.472 11.9209 -102.446 -5.34813 -1.25947e-06 -3.79883e-06 -52.4523 16.1432 -19.5575 -24.3289 0.000322201 -8.65921e-06 3.98611 16.4412 -13.8352 -22.2915 -0.000108084 -4.47941e-06 11.6063 5.1971 2.79105 -2.19248 -6.46944 -1.22534e-07 -169.029 -14.3405 -16.863 39.0811 -6.73843e-06 -1.23785e-05 0.63783 -0.238935 69.5748 40.9854 -6.48686e-06 -1.26872e-05 -24.3987 22.0548 -46.4633 11.7543 -2.30145e-07 3.05095e-06 0.123691 -0.204291 -20.1661 -2.19251 6.46944 -1.45247e-06 -171.619 11.843 157.477 -39.0811 -0.00228153 -0.0401928 0.0922205 -0.0843899 40.4356 -40.9854 7.72618e-06 5.99936e-06 3.80026 -2.23466 -66.6402 -11.7543 -5.6619e-06 -5.58687e-06 -0.0642697 0.0451397 -16.5721 
0 0 0 0 0 -0 -253.421 89.1483 -56.0946 80.618 55.9186 10.827 15.7357 5.1072e-06 -5.51765e-07 94.9605 77.4832 -92.9426 8.98455 -0.406207 -4.3199e-07 17.1454 2.29283 3.69683 16.3773 -1.3905e-06 -6.99897e-07 0.252614 -16.9718 -1.12192 6.45672 -1.25837e-06 -1.02172e-07 5.21405 -25.3101 12.0949 12.9942 -0.242716 4.98039 -90.6287 5.16427 -98.0499 5.34809 -7.22636e-06 -6.2814e-07 -57.7739 22.05 -24.8462 24.3286 1.87007e-05 4.90208e-06 -2.30309 -3.80484 -31.2195 22.2916 -9.88446e-07 4.63217e-06 19.4261 5.58826 -10.6647 12.9945 -0.242716 -4.98039 89.6151 11.3932 -103.053 -5.34813 -1.25947e-06 -3.79883e-06 -53.8426 13.6784 -20.741 -24.3289 0.000322201 -8.65921e-06 3.57289 13.8045 -14.674 -22.2915 -0.000108084 -4.47941e-06 12.5494 5.21474 2.34785 -2.19248 -6.46944 -1.22534e-07 -168.568 -11.8126 -18.5417 39.0811 -6.73843e-06 -1.23785e-05 0.514732 -0.190009 69.7791 40.9854 -6.48686e-06 -1.26872e-05 -17.3475 15.3741 -52.4688 11.7543 -2.30145e-07 3.05095e-06 0.113447 -0.186235 -19.8545 -2.19251 6.46944 -1.45247e-06 -172.941 11.9475 161.665 -39.0811 -0.00228153 -0.0401928 0.0953511 -0.101415 36.9325 -40.9854 7.72618e-06 5.99936e-06 3.1362 -0.585133 -66.4041 -11.7543 -5.6619e-06 -5.58687e-06 -0.0554576 0.0395893 -16.5722 
0 0 0 0 0 -0 -251.107 90.0582 -55.8565 80.8541 54.579 10.9415 15.7357 5.1072e-06 -5.51764e-07 95.817 77.6085 -94.1848 8.98455 -0.406207 -4.3199e-07 16.866 2.5999 2.88418 16.3773 -1.3905e-06 -6.99897e-07 0.263442 -16.5968 -1.52346 6.45672 -1.25837e-06 -1.02172e-07 5.33306 -25.338 11.7034 12.9942 -0.242716 4.98039 -90.6549 5.06068 -97.6169 5.34809 -7.22636e-06 -6.2814e-07 -59.78 20.329 -21.9505 24.3286 1.87007e-05 4.90208e-06 -2.69547 -4.72957 -29.7299 22.2916 -9.88446e-07 4.63217e-06 19.0992 5.58987 -10.754 12.9945 -0.242716 -4.98039 89.6991 10.8563 -103.403 -5.34813 -1.25947e-06 -3.79883e-06 -55.1054 12.2078 -21.5625 -24.3289 0.000322201 -8.65921e-06 3.13237 10.1598 -17.2507 -22.2915 -0.000108084 -4.47941e-06 12.2029 5.26436 1.04774 -2.19248 -6.46944 -1.22533e-07 -167.584 -9.07323 -19.4539 39.0811 -6.73843e-06 -1.23785e-05 0.387466 -0.16289 67.2117 40.9854 -6.48686e-06 -1.26872e-05 -11.0982 10.6933 -57.0039 11.7543 -2.30145e-07 3.05095e-06 0.106864 -0.174726 -19.6552 -2.19251 6.46944 -1.45247e-06 -174.115 12.0487 165.654 -39.0811 -0.00228153 -0.0401928 0.0915583 -0.11333 32.9904 -40.9854 7.72618e-06 5.99936e-06 2.47011 1.14444 -65.817 -11.7543 -5.6619e-06 -5.58687e-06 -0.0505624 0.036778 -16.5723 
0 0 0 0 0 -0 -248.79 90.7642 -55.6949 81.1197 53.0244 10.9187 15.7357 5.1072e-06 -5.51765e-07 96.3781 77.7633 -95.1676 8.98455 -0.406207 -4.3199e-07 16.541 2.76838 2.02217 16.3773 -1.3905e-06 -6.99897e-07 0.0093756 -16.119 -1.81621 6.45672 -1.25837e-06 -1.02172e-07 5.24902 -25.1194 11.1578 12.9942 -0.242716 4.98039 -90.6918 5.07265 -97.2239 5.34809 -7.22636e-06 -6.2814e-07 -61.4425 18.5154 -19.0686 24.3286 1.87007e-05 4.90208e-06 -2.97997 -5.70044 -27.6599 22.2916 -9.88446e-07 4.63217e-06 18.6155 5.58652 -10.5667 12.9945 -0.242716 -4.98039 89.7426 10.4724 -103.584 -5.34813 -1.25947e-06 -3.79883e-06 -55.3799 12.5606 -22.4209 -24.3289 0.000322201 -8.65921e-06 2.72219 7.01843 -21.2828 -22.2915 -0.000108084 -4.47941e-06 11.5421 5.29977 0.0773151 -2.19248 -6.46944 -1.22534e-07 -166.091 -6.51999 -19.4309 39.0811 -6.73843e-06 -1.23785e-05 0.304136 -0.161205 62.1438 40.9854 -6.48686e-06 -1.26872e-05 -7.51245 6.93014 -59.613 11.7543 -2.30145e-07 3.05095e-06 0.108347 -0.177293 -19.6994 -2.19251 6.46944 -1.45247e-06 -175.35 12.2687 169.268 -39.0811 -0.00228153 -0.0401928 0.0881199 -0.126255 29.3267 -40.9854 7.72618e-06 5.99936e-06 1.77532 3.14738 -65.2249 -11.7543 -5.6619e-06 -5.58687e-06 -0.0498522 0.036983 -16.5722 
